<?xml version="1.0" encoding="UTF-8"?>
<svg width="17px" height="18px" viewBox="0 0 17 18" version="1.1" xmlns="http://www.w3.org/2000/svg" xmlns:xlink="http://www.w3.org/1999/xlink">
    <title>vuesax/linear/call-slash</title>
    <g id="Page-1" stroke="none" stroke-width="1" fill="none" fill-rule="evenodd">
        <g id="Group-12" transform="translate(-385.000000, -184.000000)">
            <g id="Group-11" transform="translate(105.000000, 118.000000)">
                <g id="call-slash" transform="translate(279.807692, 65.656566)">
                    <g transform="translate(1.522436, 1.599327)" id="Vector" stroke="#FF325B" stroke-dasharray="0,0" stroke-linecap="round" stroke-linejoin="round" stroke-width="0.8">
                        <path d="M6.33338537,13.5703169 C6.43995588,13.6582799 6.54652662,13.7382475 6.66070932,13.8262105 C7.52849777,14.489931 8.40389812,15.0177084 9.27929874,15.4095434 C10.1546994,15.8013784 10.9844279,15.9932973 11.7608702,15.9932973 C12.2937227,15.9932973 12.7885135,15.8893417 13.2452443,15.6894259 C13.7095872,15.4895101 14.1206459,15.1776411 14.4936427,14.7458229 C14.7143959,14.4899307 14.8818626,14.2180448 15.0112697,13.930166 C15.1406767,13.6422872 15.2015742,13.3464117 15.2015742,13.0585329 C15.2015742,12.8346272 15.1559012,12.6347108 15.0797794,12.434795 C14.9960455,12.2348791 14.8590268,12.0669503 14.6611101,11.9230109 L12.1414791,10.0438026 C11.9511746,9.90785988 11.7760939,9.80390339 11.608626,9.73193369 C11.441158,9.65996399 11.288914,9.62797736 11.1442826,9.62797736 C10.9539781,9.62797736 10.7788987,9.68395383 10.6038185,9.79590669 C10.4287384,9.89186628 10.2460459,10.0438026 10.0557414,10.2437185 L9.47721559,10.8434659 C9.39348161,10.9314289 9.29452339,10.979408 9.16511634,10.979408 C9.09660672,10.979408 9.03570929,10.9714114 8.97481186,10.9474215 C8.9215266,10.9234316 8.87585329,10.8994418 8.83779239,10.8834485 C8.69316098,10.8034822 8.52569332,10.6915293 8.34300102,10.5475899" fill-rule="nonzero"></path>
                        <path d="M6.64543234,8.97222244 C6.24959903,8.54840091 5.88421453,8.12457938 5.54166646,7.70875448 C5.20673057,7.29292958 4.9707535,6.94907381 4.83373426,6.68518491 C4.81850991,6.63720511 4.79567342,6.58922547 4.77283689,6.5252524 C4.75761253,6.46127934 4.74999983,6.40530327 4.74999983,6.34133021 C4.74999983,6.21338409 4.78806061,6.1094274 4.87179458,6.02146443 L5.4503204,5.38973046 C5.6330127,5.19781127 5.77764444,5.00589205 5.87660277,4.82196948 C5.98317328,4.63804692 6.03645857,4.44612808 6.03645857,4.25420889 C6.03645857,4.10227287 5.99839741,3.93434346 5.92988779,3.76641417 C5.86137817,3.59048825 5.76242014,3.40656584 5.6254009,3.20665001 L3.85937513,0.591750849 C3.72235589,0.383838399 3.54727571,0.239899041 3.34935905,0.143939447 C3.15905456,0.0479798535 2.94591358,0 2.73277255,0 C2.16947126,0 1.63661857,0.247895672 1.1494391,0.751683547 C0.745993604,1.1515152 0.456730685,1.59932669 0.274038382,2.08712132 C0.0913460781,2.56691932 0,3.0867003 0,3.63047135 C0,4.46212115 0.182692338,5.33375456 0.548076945,6.24537071 C0.913461552,7.14899023 1.41586526,8.06060629 2.04006397,8.97222244 C2.67187486,9.88383859 3.37980755,10.7554712 4.16386202,11.587121" fill-rule="nonzero"></path>
                        <line x1="15.224359" y1="0" x2="0" y2="15.993266"></line>
                    </g>
                    <path d="M18.2692308,0 L18.2692308,19.1919192 L0,19.1919192 L0,0 L18.2692308,0 Z" id="Vector" opacity="0"></path>
                </g>
            </g>
        </g>
    </g>
</svg>