<?xml version="1.0" encoding="UTF-8"?>
<svg width="17px" height="18px" viewBox="0 0 17 18" version="1.1" xmlns="http://www.w3.org/2000/svg" xmlns:xlink="http://www.w3.org/1999/xlink">
    <title>vuesax/linear/call</title>
    <g id="Page-1" stroke="none" stroke-width="1" fill="none" fill-rule="evenodd">
        <g id="Group-12" transform="translate(-385.000000, -134.000000)">
            <g id="Group-11" transform="translate(105.000000, 118.000000)">
                <g id="call" transform="translate(279.807692, 15.151515)">
                    <g transform="translate(1.522436, 1.599327)" fill-rule="nonzero" id="Vector" stroke="#2AFF7B" stroke-dasharray="0,0" stroke-width="0.8">
                        <path d="M15.0112174,13.9301347 C14.8818104,14.2180135 14.7143436,14.4898994 14.4935904,14.7457917 C14.1205936,15.1776099 13.709535,15.4894788 13.245192,15.6893946 C12.7884612,15.8893104 12.2936704,15.993266 11.7608179,15.993266 C10.9843756,15.993266 10.1546471,15.8013472 9.27924648,15.4095122 C8.40384585,15.0176771 7.5284455,14.4898997 6.66065705,13.8261792 C5.78525643,13.154462 4.95552866,12.4107742 4.16386202,11.587121 C3.37980755,10.7554712 2.67187486,9.88383859 2.04006397,8.97222244 C1.41586526,8.06060629 0.913461552,7.14899023 0.548076945,6.24537071 C0.182692338,5.33375456 0,4.46212115 0,3.63047135 C0,3.0867003 0.0913460781,2.56691932 0.274038382,2.08712132 C0.456730685,1.59932669 0.745993604,1.1515152 1.1494391,0.751683547 C1.63661857,0.247895672 2.16947126,0 2.73277255,0 C2.94591358,0 3.15905456,0.0479798535 3.34935905,0.143939447 C3.54727571,0.239899041 3.72235589,0.383838399 3.85937513,0.591750849 L5.6254009,3.20665001 C5.76242014,3.40656584 5.86137817,3.59048825 5.92988779,3.76641417 C5.99839741,3.93434346 6.03645857,4.10227287 6.03645857,4.25420889 C6.03645857,4.44612808 5.98317328,4.63804692 5.87660277,4.82196948 C5.77764444,5.00589205 5.6330127,5.19781127 5.4503204,5.38973046 L4.87179458,6.02146443 C4.78806061,6.1094274 4.74999983,6.21338409 4.74999983,6.34133021 C4.74999983,6.40530327 4.75761253,6.46127934 4.77283689,6.5252524 C4.79567342,6.58922547 4.81850991,6.63720511 4.83373426,6.68518491 C4.9707535,6.94907381 5.20673057,7.29292958 5.54166646,7.70875448 C5.88421453,8.12457938 6.24959903,8.54840091 6.64543234,8.97222244 C7.05649005,9.39604396 7.45232351,9.78787846 7.855769,10.1477269 C8.25160232,10.4995788 8.57892602,10.7394778 8.83774012,10.8834172 C8.87580102,10.8994105 8.92147433,10.9234003 8.97475959,10.9473902 C9.03565702,10.9713801 9.09655446,10.9793767 9.16506407,10.9793767 C9.29447113,10.9793767 9.39342934,10.9313976 9.47716332,10.8434347 L10.0556891,10.2436872 C10.2459936,10.0437714 10.4286861,9.89183501 10.6037663,9.79587542 C10.7788464,9.68392256 10.9539258,9.6279461 11.1442303,9.6279461 C11.2888617,9.6279461 11.4411058,9.65993272 11.6085737,9.73190242 C11.7760417,9.80387212 11.9511224,9.90782862 12.1414269,10.0437714 L14.6610579,11.9229797 C14.8589745,12.0669191 14.9959932,12.2348479 15.0797272,12.4347637 C15.155849,12.6346795 15.2015219,12.8345959 15.2015219,13.0585016 C15.2015219,13.3463804 15.1406245,13.6422559 15.0112174,13.9301347 Z"></path>
                    </g>
                    <path d="M18.2692308,0 L18.2692308,19.1919192 L0,19.1919192 L0,0 L18.2692308,0 Z" id="Vector" opacity="0"></path>
                </g>
            </g>
        </g>
    </g>
</svg>