<?xml version="1.0" encoding="UTF-8"?>
<svg width="22px" height="22px" viewBox="0 0 22 22" version="1.1" xmlns="http://www.w3.org/2000/svg" xmlns:xlink="http://www.w3.org/1999/xlink">
    <title>vuesax/linear/call</title>
    <g id="Linear" stroke="none" stroke-width="1" fill="none" fill-rule="evenodd">
        <g id="Call" transform="translate(-109.000000, -189.000000)">
            <g id="call" transform="translate(108.000000, 188.000000)">
                <g transform="translate(2.000000, 2.000000)" fill-rule="nonzero" id="Vector" stroke="#FFFFFF" stroke-dasharray="0,0" stroke-width="1.5">
                    <path d="M19.7199993,17.4200001 C19.5499993,17.7800001 19.3300009,18.1200005 19.0400009,18.4400005 C18.5500009,18.9800006 18.0099996,19.3700008 17.3999996,19.6200008 C16.7999996,19.8700008 16.1500008,20 15.4500008,20 C14.4300008,20 13.3399996,19.7600005 12.1899996,19.2700005 C11.0399996,18.7800004 9.88999999,18.1200009 8.75,17.2900009 C7.60000002,16.4500009 6.50999975,15.5199997 5.46999979,14.4899998 C4.43999982,13.4499998 3.50999981,12.3600003 2.67999983,11.2200003 C1.85999984,10.0800003 1.20000002,8.94000041 0.720000029,7.81000042 C0.240000039,6.67000043 0,5.57999992 0,4.53999996 C0,3.85999995 0.1199999,3.21000016 0.359999895,2.61000013 C0.59999989,2 0.980000019,1.44000006 1.50999999,0.940000057 C2.14999998,0.310000062 2.85000014,0 3.59000015,0 C3.87000015,0 4.1500001,0.0600000694 4.4000001,0.180000067 C4.66000009,0.300000064 4.89000016,0.480000019 5.07000017,0.74000001 L7.39000034,4.01000023 C7.57000035,4.26000023 7.69999996,4.49000004 7.78999996,4.71000004 C7.87999997,4.92000003 7.93000031,5.13000017 7.93000031,5.32000017 C7.93000031,5.56000017 7.86000027,5.79999973 7.72000027,6.02999973 C7.59000027,6.25999974 7.39999984,6.5 7.15999985,6.73999977 L6.39999962,7.52999973 C6.28999962,7.63999973 6.23999977,7.77000031 6.23999977,7.93000031 C6.23999977,8.0100003 6.25000046,8.07999985 6.27000046,8.15999985 C6.30000046,8.23999985 6.33000038,8.29999966 6.35000038,8.35999966 C6.53000039,8.68999967 6.83999974,9.12000036 7.27999973,9.64000034 C7.72999972,10.1600003 8.20999956,10.6900003 8.72999954,11.2200003 C9.26999956,11.7500002 9.78999972,12.2399996 10.3199997,12.6899996 C10.8399997,13.1299996 11.2699997,13.4299996 11.6099997,13.6099997 C11.6599997,13.6299997 11.72,13.6599996 11.79,13.6899996 C11.87,13.7199996 11.95,13.7299995 12.04,13.7299995 C12.21,13.7299995 12.3399998,13.6700004 12.4499998,13.5600004 L13.21,12.8100004 C13.46,12.5600004 13.7000003,12.37 13.9300003,12.25 C14.1600003,12.11 14.3899994,12.04 14.6399994,12.04 C14.8299994,12.04 15.03,12.0800001 15.25,12.1700001 C15.47,12.2600001 15.7000008,12.3900004 15.9500008,12.5600004 L19.2600002,14.9099998 C19.5200002,15.0899999 19.6999995,15.2999992 19.8099995,15.5499992 C19.9099995,15.7999992 19.9699993,16.0499999 19.9699993,16.3299999 C19.9699993,16.6899999 19.8899993,17.0600001 19.7199993,17.4200001 Z"></path>
                </g>
                <path d="M24,0 L24,24 L0,24 L0,0 L24,0 Z" id="Vector" opacity="0"></path>
            </g>
        </g>
    </g>
</svg>