<?xml version="1.0" encoding="UTF-8"?>
<svg width="22px" height="20px" viewBox="0 0 22 20" version="1.1" xmlns="http://www.w3.org/2000/svg" xmlns:xlink="http://www.w3.org/1999/xlink">
    <title>vuesax/linear/video</title>
    <g id="Linear" stroke="none" stroke-width="1" fill="none" fill-rule="evenodd">
        <g id="Video,-Audio,-Image" transform="translate(-109.000000, -256.000000)">
            <g id="video" transform="translate(108.000000, 254.000000)">
                <path d="M6.21000004,20.4200783 C3.04999995,20.4200783 2,18.3200772 2,16.2100773 L2,7.79007816 C2,4.63007808 3.04999995,3.58007812 6.21000004,3.58007812 L12.5299997,3.58007812 C15.6899998,3.58007812 16.7399998,4.63007808 16.7399998,7.79007816 L16.7399998,16.2100773 C16.7399998,19.3700774 15.6799998,20.4200783 12.5299997,20.4200783 L6.21000004,20.4200783 Z" id="Vector" stroke="#FFFFFF" stroke-width="1.5" stroke-linecap="round" stroke-linejoin="round" stroke-dasharray="0,0" fill-rule="nonzero"></path>
                <path d="M16.7399902,15.1498871 L16.7399902,8.83988762 L19.5199909,6.88988739 C20.8799909,5.9398874 21.9999905,6.51988721 21.9999905,8.18988717 L21.9999905,15.8098879 C21.9999905,17.4798878 20.8799909,18.0598878 19.5199909,17.0998878 L16.7399902,15.1498871 Z" id="Vector" stroke="#FFFFFF" stroke-width="1.5" stroke-linecap="round" stroke-linejoin="round" stroke-dasharray="0,0" fill-rule="nonzero"></path>
                <path d="M11.5,11 C10.6715729,11 10,10.3284271 10,9.5 C10,8.67157286 10.6715729,8 11.5,8 C12.3284271,8 13,8.67157286 13,9.5 C13,10.3284271 12.3284271,11 11.5,11 Z" id="Vector" stroke="#FFFFFF" stroke-width="1.5" stroke-linecap="round" stroke-linejoin="round" stroke-dasharray="0,0"></path>
                <path d="M24,0 L24,24 L0,24 L0,0 L24,0 Z" id="Vector" opacity="0"></path>
            </g>
        </g>
    </g>
</svg>